<?xml version="1.0" encoding="UTF-8"?>
<svg version="1.1" xmlns="http://www.w3.org/2000/svg" width="1182" height="1182">
<path d="M0 0 C4.62666188 3.87035186 9.02676821 7.8812458 13.28320312 12.15380859 C13.86794907 12.73680222 14.45269501 13.31979584 15.05516052 13.92045593 C16.96636096 15.8272948 18.87392637 17.73772145 20.78125 19.6484375 C22.12196523 20.98847797 23.46282879 22.32837006 24.80383301 23.66812134 C27.60603856 26.46885754 30.40644043 29.27138141 33.20556641 32.07519531 C36.77611919 35.65143936 40.35113582 39.22318194 43.92752838 42.79358482 C46.6952993 45.55772477 49.46066252 48.32426365 52.22532654 51.09151077 C53.54177156 52.40861835 54.85894725 53.72499608 56.17689514 55.04059982 C58.02597364 56.88711054 59.87176896 58.73684539 61.71679688 60.58740234 C62.25102768 61.11960892 62.78525848 61.65181549 63.3356781 62.20014954 C66.08502874 64.9646194 68.70958999 67.79269246 71.25029087 70.75071144 C74.72292995 74.73289338 78.36206121 78.49985866 82.1058197 82.22607422 C82.78558682 82.90669576 83.46535393 83.5873173 84.16572005 84.28856373 C86.42183746 86.54631541 88.68148649 88.8004975 90.94116211 91.0546875 C92.56800463 92.68124768 94.19462645 94.30802862 95.82104492 95.93501282 C100.22114664 100.33540067 104.62431813 104.73270504 109.02805781 109.12945175 C113.63561669 113.7307466 118.24033158 118.33488577 122.84535217 122.9387207 C130.56985102 130.66046762 138.29609152 138.38046784 146.02368164 146.09912109 C153.97993752 154.04618527 161.93513298 161.99430851 169.88891602 169.94384766 C170.37993122 170.43460014 170.87094643 170.92535262 171.37684088 171.43097639 C173.84033544 173.89316582 176.30380928 176.35537598 178.76727283 178.81759644 C199.17497201 199.21494414 219.58633022 219.60862774 240 240 C242.59723326 237.45056744 244.75504243 235.08308615 246.6640625 231.98046875 C247.14077393 231.21379883 247.61748535 230.44712891 248.10864258 229.65722656 C248.60904053 228.8422168 249.10943848 228.02720703 249.625 227.1875 C250.70294659 225.45610863 251.78239042 223.72564859 252.86328125 221.99609375 C253.39646973 221.14257324 253.9296582 220.28905273 254.47900391 219.40966797 C256.53527736 216.15197632 258.66042462 212.94493129 260.8125 209.75 C264.99109803 203.53451653 269.10003482 197.27579408 273.1875 191 C273.81736816 190.03296143 274.44723633 189.06592285 275.09619141 188.06958008 C276.39636831 186.07272751 277.69633253 184.07573645 278.99609375 182.07861328 C282.39079106 176.86331929 285.78903833 171.65034146 289.1875 166.4375 C289.81100342 165.48037109 290.43450684 164.52324219 291.0769043 163.53710938 C292.22000067 161.78347245 293.36524892 160.0312353 294.51318359 158.28076172 C295.4340948 156.868093 296.34529111 155.44897464 297.24072266 154.02001953 C298.11086293 152.64727404 299.04704762 151.31660777 300 150 C300.66 150 301.32 150 302 150 C302.15754509 150.75349291 302.31509018 151.50698582 302.47740936 152.28331184 C306.35209001 170.81470576 310.22706508 189.34603808 314.10234833 207.87730598 C315.9765741 216.83972446 317.85070845 225.80216204 319.72460938 234.76464844 C321.36228964 242.59733826 323.00015994 250.42998831 324.63823748 258.26259506 C325.66679785 263.18077993 326.6951629 268.09900558 327.72334528 273.01726949 C328.37364846 276.12758934 329.02426165 279.23784432 329.67485142 282.34810424 C330.14942799 284.6178272 330.62344654 286.88766617 331.09740448 289.15751839 C332.61464827 296.41837764 334.14129745 303.67706397 335.68902731 310.9314934 C336.44167205 314.45967221 337.19160562 317.9884255 337.94156742 321.51717544 C338.30180169 323.20775025 338.66350918 324.89801187 339.02676296 326.58794045 C339.52928018 328.92586981 340.0269046 331.26479283 340.52355957 333.60397339 C340.74895401 334.64258455 340.74895401 334.64258455 340.97890186 335.70217776 C341.65680801 338.91723433 342 341.6888268 342 345 C340.18359375 346.578125 340.18359375 346.578125 337.4375 348.25 C331.23839732 352.17900874 325.20145928 356.29265145 319.1875 360.5 C317.17978489 361.89987928 315.17197055 363.29961623 313.1640625 364.69921875 C312.14731445 365.40868652 311.13056641 366.1181543 310.08300781 366.84912109 C305.07863434 370.34045229 300.07094956 373.82701945 295.0625 377.3125 C294.09876465 377.9832959 293.1350293 378.6540918 292.14208984 379.34521484 C286.08441703 383.55866051 280.01076321 387.74781923 273.92407227 391.91918945 C267.72667677 396.17339441 261.57493924 400.49216134 255.42114258 404.80908203 C249.66284095 408.84524896 243.87959295 412.84263654 238.078125 416.81640625 C232.6943569 420.50967116 227.34476403 424.25056705 222 428 C215.38356218 432.64153138 208.74601624 437.2491718 202.078125 441.81640625 C196.6943565 445.50967144 191.34478913 449.25060234 186 453 C180.08068969 457.1519598 174.15161402 461.28763498 168.1875 465.375 C158.75373229 471.84108418 149.37285352 478.38294685 139.98779297 484.91943359 C134.20751967 488.94455936 128.42457179 492.96584115 122.64208984 496.98779297 C117.76177486 500.3824692 112.88217975 503.77817184 108.00390625 507.17578125 C98.99463698 513.4491859 89.97982163 519.71304499 80.92407227 525.91918945 C75.59236135 529.57914484 70.29466834 533.28671936 65 537 C61.66756801 539.3346231 58.33423978 541.66795946 55 544 C53.81253174 544.83072021 53.81253174 544.83072021 52.60107422 545.67822266 C50.38276156 547.22717264 48.16082128 548.77075089 45.9375 550.3125 C44.9465332 551.00569336 44.9465332 551.00569336 43.93554688 551.71289062 C41.30328131 553.53180006 39.05317258 554.98227581 36 556 C37.38729911 552.19083498 39.15263116 549.01081231 41.38671875 545.6328125 C42.06992187 544.59447266 42.753125 543.55613281 43.45703125 542.48632812 C44.20048782 541.36586351 44.94397828 540.24542139 45.6875 539.125 C46.45881784 537.9553975 47.2296442 536.78547075 48 535.61523438 C49.5742668 533.224431 51.15046061 530.83491612 52.72802734 528.44628906 C56.00663459 523.47807481 59.25290823 518.48884531 62.5 513.5 C68.54546705 504.22443194 74.60357716 494.95716633 80.6640625 485.69140625 C85.28139431 478.63108615 89.89312281 471.56714564 94.5 464.5 C99.82653062 456.32887537 105.1610143 448.16299167 110.5 440 C112.64443652 436.72025932 114.78878193 433.44045909 116.93310547 430.16064453 C118.27288475 428.11188684 119.61303121 426.0633692 120.95361328 424.01513672 C128.04970951 413.17250657 135.09660003 402.30180343 142.0625 391.375 C147.66483856 382.5888039 153.36859896 373.87949653 159.17260742 365.2253418 C163.87645823 358.20830156 168.45953071 351.12383975 173 344 C163.43 344 153.86 344 144 344 C140.86250144 337.72500289 137.87418734 331.58660688 135.20703125 325.12890625 C134.8638385 324.30628799 134.52064575 323.48366974 134.16705322 322.63612366 C133.04565791 319.94624027 131.92913032 317.25436448 130.8125 314.5625 C130.01462281 312.64681381 129.21635676 310.73128954 128.41772461 308.81591797 C126.76195699 304.84390586 125.10784906 300.87120917 123.45507812 296.89794922 C119.67019572 287.80167974 115.86681067 278.71315707 112.0625 269.625 C111.69370728 268.74367401 111.32491455 267.86234802 110.94494629 266.95431519 C102.01448912 245.61459728 93.00838785 224.30690736 84 203 C80.81160436 195.45871164 77.62379007 187.91717827 74.4375 180.375 C74.04410431 179.44383362 73.65070862 178.51266724 73.24539185 177.55328369 C67.09502691 162.99226434 60.98096795 148.4163152 54.88497925 133.8324585 C49.12012647 120.04216241 43.32031147 106.26697515 37.5 92.5 C29.27293745 73.03879706 21.09523376 53.5573297 12.95410156 34.06002808 C11.12299539 29.67734908 9.28440823 25.29800608 7.43232727 20.92414856 C6.68651091 19.16272516 5.94293293 17.40035449 5.19946289 15.63793945 C4.35007075 13.6255455 3.49674086 11.61480641 2.63842773 9.60620117 C2.28079346 8.75646729 1.92315918 7.9067334 1.5546875 7.03125 C1.25030762 6.31517578 0.94592773 5.59910156 0.63232422 4.86132812 C0 3 0 3 0 0 Z " fill="#FEE500" transform="translate(718,318)"/>
<path d="M0 0 C9.9 0 19.8 0 30 0 C30.33 76.56 30.66 153.12 31 232 C21.76 232 12.52 232 3 232 C1.9458482 228.83754459 1.68724328 226.13051782 1.4375 222.8125 C1.35371094 221.72582031 1.26992188 220.63914062 1.18359375 219.51953125 C1.12300781 218.68808594 1.06242188 217.85664062 1 217 C-0.07314453 217.87011719 -0.07314453 217.87011719 -1.16796875 218.7578125 C-20.12496781 233.619315 -42.43582323 238.37080192 -66.1640625 235.57421875 C-81.31476742 233.35315359 -94.41269749 226.97795494 -106 217 C-106.79921875 216.31292969 -107.5984375 215.62585938 -108.421875 214.91796875 C-124.91028363 199.59512004 -133.05193853 177.21371949 -134.203125 155.09765625 C-134.67694254 130.60400583 -127.88251292 109.2393764 -111 91 C-99.87299196 80.06735017 -86.41979459 72.71014572 -71 70 C-69.7625 69.773125 -68.525 69.54625 -67.25 69.3125 C-44.07310567 67.06649168 -22.43923055 71.27514683 -4 86 C-3.01 86.66 -2.02 87.32 -1 88 C-0.505 44.44 -0.505 44.44 0 0 Z M-91 110 C-104.0492726 127.45920465 -105.87699216 145.697545 -103.5703125 166.9609375 C-100.89872703 180.31886486 -94.20218149 192.55452279 -83.25 200.6875 C-68.62870388 210.42048219 -51.90952494 211.72008604 -34.98681641 208.40600586 C-22.05727116 205.62792164 -11.57146399 200.15121344 -4 188.9375 C0.16524269 182.18429401 0.30845788 174.40531753 0.30078125 166.7265625 C0.30720894 165.28088394 0.30720894 165.28088394 0.31376648 163.80599976 C0.31948176 161.77724998 0.32003084 159.74847971 0.31567383 157.71972656 C0.31251632 154.640915 0.33600022 151.56306794 0.36132812 148.484375 C0.36360188 146.50260536 0.36430426 144.52083318 0.36328125 142.5390625 C0.372491 141.63145172 0.38170074 140.72384094 0.39118958 139.78872681 C0.31845194 129.57829173 -2.22594828 121.67511324 -9 114 C-9.73669922 113.12408203 -9.73669922 113.12408203 -10.48828125 112.23046875 C-20.13061297 101.63108177 -34.84604581 94.7241019 -49.12890625 93.796875 C-65.37973151 93.57502073 -79.79187237 97.72939187 -91 110 Z " fill="#0B2F53" transform="translate(260,480)"/>
<path d="M0 0 C16.45898431 14.76300975 25.94497906 33.76209086 27.51025391 55.96630859 C28.7753412 82.8242707 21.65635944 106.18096888 3.62695312 126.51025391 C-10.0678327 140.97839235 -29.90998671 149.02303149 -49.68164062 149.77978516 C-63.47879257 150.03153489 -76.36769707 148.77042802 -89.15820312 143.32666016 C-89.78033691 143.06361084 -90.4024707 142.80056152 -91.04345703 142.52954102 C-96.78685565 139.88727174 -100.37631103 136.68479845 -105.65820312 132.57666016 C-105.98820312 158.31666016 -106.31820313 184.05666016 -106.65820312 210.57666016 C-116.22820312 210.57666016 -125.79820312 210.57666016 -135.65820312 210.57666016 C-135.66851059 208.43628265 -135.67881805 206.29590515 -135.68943787 204.09066772 C-135.78796657 183.70839456 -135.89086088 163.32614656 -135.99754238 142.94391441 C-136.05226018 132.47059402 -136.10562378 121.99727036 -136.15551758 111.52392578 C-136.19913047 102.36981087 -136.24557064 93.21571487 -136.29508168 84.06162989 C-136.32108145 79.23786445 -136.34588747 74.41410123 -136.36727715 69.59031296 C-136.49273729 41.5767687 -136.97636855 13.58213726 -137.65820312 -14.42333984 C-128.08820313 -14.42333984 -118.51820313 -14.42333984 -108.65820312 -14.42333984 C-105.65820312 -1.42333984 -105.65820312 -1.42333984 -105.65820312 1.57666016 C-104.79839844 0.99658203 -103.93859375 0.41650391 -103.05273438 -0.18115234 C-72.0016193 -20.83169421 -30.10386454 -25.84003684 0 0 Z M-98.65820312 31.57666016 C-100.63094337 34.47300152 -102.23700785 37.37734841 -103.65820312 40.57666016 C-104.07070313 41.46353516 -104.48320312 42.35041016 -104.90820312 43.26416016 C-107.15680017 50.19733439 -106.87811819 57.41155183 -106.8984375 64.61474609 C-106.90808019 66.67538823 -106.93912602 68.73500398 -106.97070312 70.79541016 C-107.0905366 85.60883426 -104.25417814 97.69320801 -94.03320312 108.76416016 C-82.79176162 119.36200769 -68.63525452 123.955757 -53.38867188 123.72509766 C-39.40348978 122.96481594 -26.63205834 118.71375359 -16.65820312 108.57666016 C-10.66827704 101.28498636 -6.11028055 93.77533735 -3.65820312 84.57666016 C-3.43519531 83.75294922 -3.2121875 82.92923828 -2.98242188 82.08056641 C0.6508527 65.84205353 -0.82765261 48.00670883 -8.72070312 33.26416016 C-16.80076851 20.66473617 -27.70368043 12.02812403 -42.22070312 8.13916016 C-65.03351382 4.39314512 -84.26855684 14.47663529 -98.65820312 31.57666016 Z " fill="#0B2F53" transform="translate(614.658203125,566.42333984375)"/>
<path d="M0 0 C17.54587156 14.92984553 23.39627247 36.11410416 26.33203125 58.2265625 C26.72530018 64.20777205 26.59375 70.21290678 26.59375 76.20703125 C-14.98625 76.20703125 -56.56625 76.20703125 -99.40625 76.20703125 C-96.17795329 92.34851482 -92.79083546 104.96745768 -79.40625 115.20703125 C-58.25134994 128.44137631 -33.68182603 127.25767895 -10.12451172 121.87939453 C-3.11360987 120.14524475 3.78794797 118.04577105 10.65283203 115.80786133 C12.62874705 115.19619757 14.5635174 114.60810198 16.59375 114.20703125 C18.36407103 115.97735228 18.08013604 118.58450563 18.34765625 120.9921875 C18.47978516 122.16201172 18.61191406 123.33183594 18.74804688 124.53710938 C18.95010742 126.3846582 18.95010742 126.3846582 19.15625 128.26953125 C19.36411133 130.12288086 19.36411133 130.12288086 19.57617188 132.01367188 C19.91924988 135.07771337 20.25825754 138.14215143 20.59375 141.20703125 C10.19189887 144.77653441 -0.19535578 147.77899457 -10.96875 150.01953125 C-11.95423828 150.22602295 -12.93972656 150.43251465 -13.95507812 150.64526367 C-41.25059785 156.13063103 -71.69627037 155.09698318 -95.51171875 139.33984375 C-113.96277214 125.74433073 -124.18818558 109.56207369 -129.0234375 87.375 C-131.3300735 68.28641021 -129.44036872 48.74857412 -121.40625 31.20703125 C-120.98730469 30.28664063 -120.56835938 29.36625 -120.13671875 28.41796875 C-111.51374821 11.17202767 -96.38718345 -1.92441824 -78.40625 -8.79296875 C-52.82837513 -17.12616977 -22.00664108 -17.04249934 0 0 Z M-88.40625 29.20703125 C-93.23430707 35.64444068 -97.40625 41.94984477 -97.40625 50.20703125 C-66.38625 50.20703125 -35.36625 50.20703125 -3.40625 50.20703125 C-4.90641335 36.70556111 -10.10894229 28.00224015 -20.671875 19.3515625 C-42.26947853 4.059553 -71.22161092 10.50266218 -88.40625 29.20703125 Z " fill="#0B2F53" transform="translate(436.40625,562.79296875)"/>
<path d="M0 0 C12.24916468 11.75919809 17.4498192 28.82095054 17.86712933 45.48186398 C17.9076422 48.30709851 17.9263065 51.13180522 17.92996025 53.95732307 C17.93369632 56.28660633 17.95061723 58.61549028 17.97071838 60.94468689 C18.02542725 67.55866964 18.05657666 74.17270941 18.08129883 80.78686523 C18.07463755 107.60703885 18.07463755 107.60703885 22.17037964 134.04910278 C23.09877093 138.02589881 23.89067055 141.63210642 23.625 145.75 C19.5217776 146.58802913 15.41727638 147.41961878 11.3125 148.25 C10.14525391 148.48847656 8.97800781 148.72695313 7.77539062 148.97265625 C6.65712891 149.19824219 5.53886719 149.42382812 4.38671875 149.65625 C3.35506592 149.86572266 2.32341309 150.07519531 1.26049805 150.29101562 C-1.375 150.75 -1.375 150.75 -4.375 150.75 C-5.695 144.81 -7.015 138.87 -8.375 132.75 C-9.9425 133.78125 -11.51 134.8125 -13.125 135.875 C-31.88267692 147.7333015 -53.4773829 154.41869276 -75.66992188 149.62280273 C-89.49936597 146.21062504 -101.94810807 140.14637327 -109.75 127.8125 C-117.16711734 114.27266529 -117.84191563 99.91143178 -113.62890625 85.1328125 C-109.17939569 72.4368757 -99.00063293 62.93395342 -87.1887207 56.95874023 C-72.5868879 49.98368126 -57.32400576 46.8532088 -41.375 44.75 C-40.46621094 44.61722656 -39.55742188 44.48445312 -38.62109375 44.34765625 C-34.60493627 43.83777887 -30.60004081 43.70913582 -26.5546875 43.6953125 C-25.24951172 43.69084106 -25.24951172 43.69084106 -23.91796875 43.6862793 C-20.07001944 43.68803989 -16.22278502 43.71444552 -12.375 43.75 C-15.80125562 31.25781136 -18.72123276 22.31168238 -30.03125 14.9765625 C-47.34661647 5.91485405 -71.87399651 11.95497642 -89.54541016 17.42138672 C-92.87996339 18.50076661 -96.18988469 19.63286503 -99.49609375 20.796875 C-102.375 21.75 -102.375 21.75 -104.375 21.75 C-104.90927272 18.02263047 -105.42504193 14.29292619 -105.9375 10.5625 C-106.08896484 9.50740234 -106.24042969 8.45230469 -106.39648438 7.36523438 C-106.53505859 6.34365234 -106.67363281 5.32207031 -106.81640625 4.26953125 C-106.94732666 3.33214111 -107.07824707 2.39475098 -107.21313477 1.42895508 C-107.38011108 -1.33459112 -107.03948355 -3.57295925 -106.375 -6.25 C-73.5860172 -15.16043249 -28.48551247 -24.03465114 0 0 Z M-38.1875 70.9375 C-39.72881592 71.13605591 -39.72881592 71.13605591 -41.30126953 71.33862305 C-56.32808411 73.42457447 -72.11121395 76.68895702 -82.21875 88.94140625 C-86.03070948 94.90403206 -86.08213338 100.87072714 -85.375 107.75 C-83.81177136 113.46212196 -81.54701947 117.62273241 -76.375 120.75 C-63.28204705 127.17744963 -49.49708441 125.07683893 -36.0234375 120.6484375 C-26.78437309 117.02298185 -19.12704497 111.97005043 -13.375 103.75 C-12.19557915 100.21173745 -12.26210811 97.40851274 -12.27734375 93.67578125 C-12.2787587 92.9919487 -12.28017365 92.30811615 -12.28163147 91.6035614 C-12.28722124 89.42316278 -12.29977178 87.24286749 -12.3125 85.0625 C-12.31751633 83.58268378 -12.322079 82.10286594 -12.32617188 80.62304688 C-12.33718729 76.99866443 -12.35444488 73.3743423 -12.375 69.75 C-21.07330548 69.612823 -29.55711039 69.82341095 -38.1875 70.9375 Z " fill="#0B2F53" transform="translate(762.375,565.25)"/>
<path d="M0 0 C1.62691911 0.00395434 3.25386317 0.00172194 4.88076782 -0.00619507 C9.27693832 -0.01019694 13.66771247 0.07182356 18.0626328 0.16984034 C22.66276529 0.25763416 27.26303536 0.26560335 31.86387634 0.28219604 C40.56646767 0.32563253 49.26658338 0.44040188 57.96808666 0.5810889 C67.87827584 0.73782383 77.7885862 0.81460901 87.69970715 0.88482499 C108.07844656 1.03098342 128.45496063 1.27707132 148.83178711 1.58935547 C148.83178711 1.91935547 148.83178711 2.24935547 148.83178711 2.58935547 C147.74502686 2.8391214 146.6582666 3.08888733 145.53857422 3.34622192 C135.18533318 5.72598469 124.83265729 8.10819273 114.48049927 10.49266243 C109.16118099 11.7178114 103.84168212 12.94216327 98.52172852 14.16455078 C69.83235576 20.72050868 69.83235576 20.72050868 41.25024414 27.72415161 C33.53605536 29.68554093 25.78455204 31.43555137 18.00543213 33.11856079 C5.80414255 35.76126562 -6.33925721 38.55993335 -18.43896484 41.63867188 C-38.74528522 46.80071323 -38.74528522 46.80071323 -45.16821289 46.58935547 C-40.25857117 38.80534169 -35.25317238 31.08525689 -30.22802734 23.37548828 C-29.7055542 22.57336914 -29.18308105 21.77125 -28.64477539 20.94482422 C-28.11494018 20.16026918 -27.58510496 19.37571415 -27.03921413 18.56738472 C-25.0784686 15.5597712 -25.0784686 15.5597712 -23.42836857 12.05973625 C-17.84002718 1.13018454 -11.96917455 -0.40877617 0 0 Z " fill="#E9D500" transform="translate(907.168212890625,660.41064453125)"/>
</svg>
